
<svg width="32" height="32" viewBox="0 0 32 32" fill="none" xmlns="http://www.w3.org/2000/svg">
<path d="M24.0843 15.9929C24.0194 15.7638 23.7812 15.6307 23.5521 15.6955C23.3231 15.7604 23.1899 15.9986 23.2548 16.2276L24.4285 20.3751L7.83874 25.0702C6.69345 25.3943 6.02777 26.5855 6.3519 27.7308C6.367 27.7996 6.38621 27.8675 6.40941 27.934C6.85196 28.9802 8.01284 29.5234 9.09961 29.193L10.6715 28.7481L10.0846 26.6744L14.2321 25.5006L14.8189 27.5744L25.6023 24.5226C26.0604 24.3929 26.3267 23.9164 26.197 23.4583L25.0233 19.3109" fill="#3B97D3"/>
<path d="M23.6147 14.3339L24.839 18.6597L16.4474 13.9702L18.325 10.6167C19.7435 12.2854 21.5641 13.5648 23.6147 14.3339Z" fill="#95A5A5"/>
<path d="M9.60721 28.1534L8.86482 28.3635C8.2064 28.5708 7.49723 28.2511 7.21657 27.6205C7.20131 27.5665 7.19075 27.5292 7.18136 27.496C6.98688 26.8089 7.38629 26.0941 8.07346 25.8997L24.2485 21.322C24.2293 22.2032 24.4746 23.07 24.9528 23.8104L9.60721 28.1534Z" fill="#F5EFCA"/>
<path d="M24.839 18.6597L24.9059 18.8961C25.035 19.3523 24.8847 20.246 24.4285 20.3751L24.3953 20.3845L15.61 15.475L10.6922 24.2626L8.35301 24.9246L13.6807 15.3849L12.1759 14.5475L10.6742 13.7047L3.48521 9.6873L2.82203 7.34399L14.5287 13.8861L16.2118 10.8743L6.84647 5.6406L9.19392 4.97624L17.048 9.36539L17.277 8.95566C17.5611 9.54787 17.9128 10.1052 18.325 10.6167L16.4474 13.9702L24.839 18.6597Z" fill="#F3D55B"/>
<path d="M16.8224 7.7449C16.9405 8.16177 17.0929 8.56812 17.2782 8.95979L17.0492 9.36952L9.19391 4.97623L20.0934 1.89156C17.5738 2.60464 16.1093 5.22527 16.8224 7.7449Z" fill="#F29C1F"/>
<path d="M16.2065 10.8713L14.5234 13.8831L2.82203 7.34399L2.67413 6.82141L6.84646 5.6406L16.2065 10.8713Z" fill="#4FBA6F"/>
<path d="M2.67413 6.82141L7.83872 25.0702C6.69343 25.3943 6.02775 26.5855 6.35188 27.7308L1.18729 9.48202C0.86316 8.33673 1.52884 7.14554 2.67413 6.82141Z" fill="#2980BA"/>
<path d="M24.9059 18.8961L26.197 23.4583L23.9574 24.0921C23.4002 23.3897 23.1467 22.4939 23.2531 21.6037L24.6633 21.2046C25.1214 21.0749 25.3876 20.5985 25.258 20.1403L24.9059 18.8961Z" fill="#285680"/>
<path d="M24.9059 18.8961L25.0232 19.3108C25.0072 19.2568 24.9808 19.2065 24.9455 19.1626C24.9421 19.0726 24.9288 18.9832 24.9059 18.8961Z" fill="#285680"/>
<path d="M24.3953 20.3845L10.6922 24.2626L15.61 15.4749L24.3953 20.3845Z" fill="#95A5A5"/>
<path d="M13.6806 15.3849L8.35296 24.9246L7.83867 25.0702L6.65669 20.8937L10.6741 13.7047L12.1759 14.5475L13.6806 15.3849Z" fill="#285680"/>
<path d="M7.74747 12.0692L5.36555 16.3315L3.48517 9.68729L7.74747 12.0692Z" fill="#285680"/>
<path d="M10.6741 13.7047L6.65669 20.8937L5.36554 16.3315L7.74746 12.0692L10.6741 13.7047Z" fill="#4482C3"/>
<path d="M20.0934 1.89156C17.5738 2.60464 16.1093 5.22527 16.8224 7.7449C16.9405 8.16177 17.0929 8.56813 17.2782 8.95979C17.5623 9.552 17.914 10.1094 18.3261 10.6208C19.7448 12.2878 21.565 13.5657 23.6147 14.3339C23.6147 14.3339 27.286 9.89485 25.9467 5.16261C25.6043 3.95264 24.7952 2.92826 23.6975 2.31482C22.5998 1.70138 21.3034 1.54913 20.0934 1.89156ZM21.9714 8.52748C20.5971 8.91643 19.1677 8.11762 18.7787 6.74327C18.3898 5.36893 19.1886 3.93949 20.5629 3.55054C21.9373 3.16159 23.3667 3.96041 23.7556 5.33475C23.9424 5.99473 23.8594 6.70188 23.5248 7.30064C23.1902 7.89939 22.6314 8.3407 21.9714 8.52748Z" fill="#E64C3C"/>
<path d="M21.9714 8.5275C23.3458 8.13854 24.1446 6.70911 23.7556 5.33477C23.3667 3.96042 21.9372 3.16161 20.5629 3.55056C19.1886 3.93951 18.3897 5.36895 18.7787 6.74329C19.1676 8.11763 20.5971 8.91645 21.9714 8.5275Z" fill="#F5EFCA"/>
<path d="M22.0888 8.94221C20.4854 9.39599 18.8177 8.46404 18.364 6.86064C17.9102 5.25724 18.8421 3.58957 20.4455 3.13579C22.049 2.68201 23.7166 3.61396 24.1704 5.21736C24.3883 5.98734 24.2914 6.81235 23.9011 7.51089C23.5107 8.20944 22.8588 8.7243 22.0888 8.94221ZM20.6803 3.96528C19.535 4.2894 18.8693 5.4806 19.1935 6.62589C19.5176 7.77117 20.7088 8.43685 21.8541 8.11272C22.9994 7.78859 23.665 6.5974 23.3409 5.45211C23.1853 4.90213 22.8175 4.4365 22.3185 4.15766C21.8196 3.87883 21.2303 3.80962 20.6803 3.96528Z" fill="#C03A2B"/>
<path d="M16.0084 25.4459L8.95773 27.4413C8.72867 27.5061 8.49043 27.373 8.4256 27.1439C8.36078 26.9148 8.49392 26.6766 8.72297 26.6118L15.7736 24.6164C16.0027 24.5515 16.2409 24.6847 16.3058 24.9137C16.3706 25.1428 16.2374 25.381 16.0084 25.4459Z" fill="#E4C05C"/>
<path d="M14.1147 25.0859L15.1711 28.8186C15.2132 28.9676 15.1722 29.1278 15.0636 29.2382C14.9549 29.3486 14.7954 29.3922 14.6457 29.3525L13.1914 28.9622C13.0421 28.9245 12.884 28.9692 12.7767 29.0796L11.7425 30.1741C11.6352 30.282 11.4789 30.3253 11.3313 30.288C11.1837 30.2507 11.0668 30.1383 11.0236 29.9923L9.96722 26.2596L14.1147 25.0859Z" fill="#E64C3C"/>
<path d="M24.9059 18.8961L25.0232 19.3108C25.0072 19.2568 24.9808 19.2065 24.9455 19.1626C24.9421 19.0726 24.9288 18.9832 24.9059 18.8961Z" fill="#3B97D3"/>
</svg>
